<?xml version="1.0" encoding="UTF-8" standalone="no"?>
<!-- Created with Inkscape (http://www.inkscape.org/) -->

<svg
   width="18.296961mm"
   height="35.512676mm"
   viewBox="0 0 18.296961 35.512676"
   version="1.1"
   id="svg1"
   xml:space="preserve"
   inkscape:version="1.3.2 (091e20e, 2023-11-25, custom)"
   sodipodi:docname="a.svg"
   inkscape:export-filename="a.svg"
   inkscape:export-xdpi="96"
   inkscape:export-ydpi="96"
   xmlns:inkscape="http://www.inkscape.org/namespaces/inkscape"
   xmlns:sodipodi="http://sodipodi.sourceforge.net/DTD/sodipodi-0.dtd"
   xmlns="http://www.w3.org/2000/svg"
   xmlns:svg="http://www.w3.org/2000/svg"><sodipodi:namedview
     id="namedview1"
     pagecolor="#ffffff"
     bordercolor="#000000"
     borderopacity="0.25"
     inkscape:showpageshadow="2"
     inkscape:pageopacity="0.0"
     inkscape:pagecheckerboard="0"
     inkscape:deskcolor="#d1d1d1"
     inkscape:document-units="mm"
     inkscape:zoom="1.0847363"
     inkscape:cx="525.93426"
     inkscape:cy="394.10499"
     inkscape:window-width="2560"
     inkscape:window-height="1057"
     inkscape:window-x="-8"
     inkscape:window-y="-8"
     inkscape:window-maximized="1"
     inkscape:current-layer="layer1" /><defs
     id="defs1" /><g
     inkscape:label="圖層 1"
     inkscape:groupmode="layer"
     id="layer1"
     transform="translate(-174.43047,-93.080877)"><path
       d="m 186.57402,128.55023 c -0.0914,-0.0914 -0.0388,-0.28417 0.10473,-0.38391 0.81134,-0.56396 1.48662,-0.96371 1.60044,-0.94743 0.0894,0.0128 0.14212,0.0761 0.15409,0.18481 0.0153,0.13858 -0.0705,0.23095 -0.52917,0.5703 -0.30105,0.22271 -0.64263,0.4534 -0.75906,0.51263 -0.2178,0.11081 -0.49316,0.14147 -0.57103,0.0636 z m -2.62379,-0.68748 c -1.78888,-0.16102 -2.14277,-0.20683 -2.53612,-0.32833 -0.24873,-0.0768 -0.60353,-0.26017 -0.84755,-0.438 -0.46495,-0.33881 -1.77572,-1.62417 -1.77572,-1.7413 0,-0.0409 -0.0791,-0.14249 -0.17582,-0.22567 -0.24314,-0.20914 -0.2774,-0.50312 -0.32855,-2.81899 -0.0571,-2.58627 -0.0365,-2.71257 0.56935,-3.49079 0.52696,-0.67684 0.94062,-1.09045 1.10649,-1.10636 0.0651,-0.006 0.29697,-0.0499 0.51525,-0.0969 0.2872,-0.0619 0.7716,-0.0756 1.75287,-0.0494 1.88934,0.0503 2.86899,0.2287 4.30286,0.78344 0.12919,0.05 0.39708,0.2272 0.59532,0.39382 0.19823,0.16663 0.65281,0.51784 1.01016,0.78048 0.8165,0.60008 0.87289,0.71091 0.81159,1.59513 -0.024,0.34561 -0.0696,1.04511 -0.10144,1.55443 -0.085,1.35964 -0.39809,2.42798 -1.06952,3.6493 -0.23551,0.42838 -0.31342,0.50812 -0.80473,0.8236 -0.61963,0.39787 -1.41828,0.6936 -1.99918,0.74027 -0.21828,0.0175 -0.67965,0.006 -1.02526,-0.0247 z m 2.67891,-1.11409 c 0.42681,-0.2462 0.56377,-0.40559 0.81064,-0.94335 l 0.20238,-0.44083 -0.49333,-0.44327 c -0.27133,-0.24381 -0.50206,-0.43239 -0.51274,-0.41907 -0.0107,0.0133 -0.11378,0.50046 -0.22912,1.08254 -0.11535,0.58209 -0.22764,1.12531 -0.24954,1.20717 -0.0542,0.20247 0.0647,0.19159 0.47171,-0.0432 z m -2.01746,-1.58497 c 0,-0.0315 -0.26789,-0.58944 -0.59531,-1.23997 -0.32742,-0.65053 -0.59531,-1.21907 -0.59531,-1.26341 0,-0.1066 0.23031,-0.22656 0.34815,-0.18134 0.11207,0.043 0.58152,0.87642 1.00162,1.7782 l 0.30601,0.65687 0.21391,-0.201 c 0.11765,-0.11055 0.31121,-0.28505 0.43013,-0.38779 0.45141,-0.38998 0.71687,-0.82868 0.89896,-1.48563 0.21282,-0.76781 0.29927,-1.37698 0.25793,-1.81737 -0.0172,-0.1828 -0.1555,-0.76317 -0.30742,-1.2897 l -0.27622,-0.95734 -0.59317,-0.18489 c -1.289,-0.40177 -1.70094,-0.45594 -3.70204,-0.48678 l -1.85209,-0.0285 -0.55433,0.64055 c -0.85941,0.99307 -0.82323,0.83459 -0.78144,3.42311 0.0194,1.20409 0.061,2.29343 0.0924,2.42076 0.0541,0.21966 0.08,0.23727 0.50579,0.34413 0.60641,0.15218 1.46207,0.23055 2.67482,0.245 l 1.01116,0.0121 -0.21093,-0.41635 c -0.11601,-0.22899 -0.2328,-0.51201 -0.25952,-0.62893 -0.058,-0.25381 0.0522,-0.44135 0.23844,-0.40567 0.13363,0.0256 0.20856,0.15183 0.59274,0.9986 l 0.23258,0.51263 h 0.46159 c 0.25387,0 0.46159,-0.0257 0.46159,-0.0572 z m 3.79441,-3.88773 c 0.0231,-0.16879 0.0421,-0.43306 0.0421,-0.58727 0,-0.26099 -0.024,-0.29843 -0.34727,-0.54144 -0.61548,-0.46269 -1.04181,-0.74826 -1.04129,-0.6975 2.8e-4,0.0272 0.0571,0.23574 0.12636,0.46337 0.0692,0.22763 0.16306,0.62203 0.20853,0.87644 0.061,0.34137 0.11022,0.46334 0.18783,0.46555 0.0578,0.002 0.2391,0.0747 0.40282,0.16238 0.16371,0.0877 0.31593,0.16073 0.33827,0.16237 0.0223,0.002 0.0596,-0.13511 0.0827,-0.3039 z m 0.26068,5.02658 c -0.0608,-0.15855 0.18017,-1.06289 0.31604,-1.18585 0.0911,-0.0825 0.14513,-0.0891 0.25359,-0.0311 0.0758,0.0406 0.13779,0.11773 0.13779,0.17148 0,0.11855 -0.23903,0.99338 -0.29709,1.08733 -0.0666,0.10783 -0.36455,0.0774 -0.41033,-0.0419 z m -8.89208,-10.15594 c -0.35321,-0.15813 -0.94654,-0.73357 -1.17626,-1.14077 -0.41301,-0.73211 -0.97576,-2.7556 -1.28927,-4.63585 -0.091,-0.5457 -0.28553,-1.84051 -0.43233,-2.87735 -0.14679,-1.03684 -0.38501,-2.51226 -0.52938,-3.27872 -0.14436,-0.76645 -0.32289,-1.92731 -0.39673,-2.57969 -0.14993,-1.32461 -0.54174,-5.929378 -0.55666,-6.542196 l -0.01,-0.395114 0.49609,-0.106519 c 0.27285,-0.05858 0.7491,-0.183153 1.05834,-0.276818 0.86093,-0.260773 3.26075,-0.891385 4.00183,-1.05158 0.51151,-0.110573 0.96255,-0.149719 1.98972,-0.17269 2.43609,-0.05448 4.73381,0.158329 5.88615,0.545157 0.27191,0.09128 0.52808,0.165957 0.56927,0.165957 0.0412,0 0.33079,0.232774 0.64354,0.517276 0.31274,0.284502 0.93062,0.819422 1.37305,1.188709 0.44243,0.369288 0.87055,0.764312 0.95138,0.877831 0.2247,0.315565 0.23147,0.681258 0.0333,1.797524 -0.0986,0.555251 -0.253,1.426271 -0.34311,1.935603 -0.0901,0.50932 -0.39762,1.93807 -0.68333,3.175 -0.64892,2.80936 -0.74208,3.43309 -0.96325,6.44923 -0.21866,2.9818 -0.30735,3.46364 -0.77995,4.23733 -0.42559,0.69673 -1.08349,1.75159 -1.24119,1.99008 l -0.15948,0.2412 -3.17501,-0.004 c -1.74625,-0.002 -3.58762,0.01 -4.09193,0.026 -0.77421,0.0252 -0.95712,0.0119 -1.17512,-0.0857 z m 8.78864,-1.4606 c 0.25761,-0.40927 0.5783,-0.95546 0.71266,-1.21375 0.23152,-0.44504 0.23921,-0.47964 0.14719,-0.66146 -0.0534,-0.10551 -0.14817,-0.34812 -0.2106,-0.53911 -0.0624,-0.191 -0.13691,-0.34727 -0.16554,-0.34727 -0.053,0 -0.72742,0.99617 -1.42104,2.09899 l -0.3841,0.6107 0.35513,0.39379 c 0.19533,0.21659 0.38726,0.3957 0.42653,0.39802 0.0393,0.002 0.28217,-0.33063 0.53977,-0.73991 z m -7.68627,-0.15094 c 1.32558,-0.16977 2.03725,-0.1874 2.97406,-0.0737 1.97422,0.23963 2.56282,0.21526 2.77925,-0.11505 0.10049,-0.15337 0.70935,-2.40232 1.03174,-3.81096 0.18902,-0.82591 0.18922,-0.82932 0.18409,-3.07579 -0.006,-2.474 -0.0288,-2.26397 0.49586,-4.49793 0.2614,-1.113 0.28485,-1.2629 0.33639,-2.14974 0.0201,-0.34561 0.0809,-1.030232 0.13516,-1.521362 0.22979,-2.080018 0.298,-2.845937 0.33881,-3.804255 l 0.0432,-1.013775 -0.19176,-0.1675 c -0.19165,-0.167398 -1.27641,-0.480566 -1.44308,-0.416612 -0.0425,0.01629 -0.19319,0.293384 -0.33496,0.615753 -0.53077,1.206971 -1.03439,2.234473 -1.35683,2.768299 -0.52868,0.875255 -0.5484,0.961005 -0.49901,2.17075 0.0235,0.575092 0.0593,1.088932 0.0796,1.141862 0.0203,0.0529 1.9e-4,0.1405 -0.0447,0.19461 -0.0992,0.11954 -0.38948,0.13017 -0.42855,0.0157 -0.0359,-0.10518 -0.0892,-0.666 -0.0953,-1.002442 -0.005,-0.25672 -0.006,-0.25754 -0.14121,-0.13472 -0.0751,0.068 -0.26868,0.30873 -0.43016,0.535032 -0.30712,0.4304 -0.49871,0.55159 -0.66016,0.4176 -0.14298,-0.11867 -0.11726,-0.28114 0.0859,-0.54243 0.10005,-0.128702 0.34002,-0.443192 0.53328,-0.698872 0.19326,-0.25568 0.38966,-0.47956 0.43645,-0.49751 0.049,-0.0188 0.10259,-0.20041 0.12643,-0.428516 0.047,-0.449874 0.11442,-0.626119 0.43278,-1.13183 0.12406,-0.197062 0.39663,-0.717962 0.60572,-1.157555 1.07704,-2.264436 1.11133,-2.344025 1.02436,-2.377399 -0.2623,-0.100653 -2.13196,-0.183229 -3.67165,-0.162163 l -1.75287,0.02398 -1.65365,0.416493 c -0.90951,0.229071 -2.03788,0.533791 -2.5075,0.677154 -0.46962,0.143363 -0.96885,0.27905 -1.10941,0.301526 -0.14056,0.02248 -0.27214,0.0677 -0.29241,0.100488 -0.0203,0.03279 0.01,0.482809 0.0662,1.000038 0.0567,0.517228 0.14889,1.625026 0.2049,2.461772 0.056,0.836742 0.16418,2.027374 0.24038,2.645844 l 0.13854,1.12448 0.64498,1.12448 c 0.80809,1.40888 1.82706,3.34933 1.95502,3.72302 0.14438,0.42167 0.12065,1.16888 -0.0608,1.91327 -0.0868,0.35617 -0.25194,1.04434 -0.36696,1.52927 -0.11503,0.48493 -0.27733,1.03588 -0.36067,1.22434 l -0.15154,0.34265 0.25455,0.9254 c 0.14001,0.50897 0.27346,1.0247 0.29657,1.14605 0.0261,0.13701 0.0948,0.24198 0.18126,0.27693 0.22125,0.0894 1.06911,0.0733 1.9277,-0.0367 z m -2.38427,-5.13871 c 0.26104,-1.22963 0.27957,-1.62444 0.0977,-2.08198 -0.27628,-0.69512 -1.65625,-3.32748 -1.74437,-3.32748 -0.0104,0 0.0656,0.49858 0.16881,1.10795 0.10322,0.60937 0.32116,1.98603 0.48431,3.05925 0.38632,2.54115 0.43976,2.86441 0.48656,2.94306 0.0536,0.09 0.30805,-0.76372 0.50698,-1.7008 z m 11.93985,-4.39708 c 0,-0.0617 0.14773,-0.72394 0.32829,-1.47175 0.18056,-0.7478 0.36659,-1.55312 0.41341,-1.78959 l 0.0851,-0.42995 -0.83313,-0.85376 -0.83313,-0.853752 0.0255,0.39073 c 0.0478,0.731462 0.22907,2.107612 0.45559,3.458432 0.12431,0.74134 0.22603,1.41851 0.22603,1.50482 0,0.0863 0.0298,0.15693 0.0661,0.15693 0.0364,0 0.0661,-0.0504 0.0661,-0.11211 z m 0.50098,6.04392 c -0.11278,-0.0825 -0.11523,-0.15538 -0.0427,-1.27331 0.1325,-2.04373 0.19628,-2.52244 0.43539,-3.26767 0.12287,-0.38297 0.26352,-0.85755 0.31255,-1.05462 0.0996,-0.40017 0.24657,-0.54542 0.43093,-0.42579 0.16836,0.10924 0.13116,0.39353 -0.17945,1.37172 -0.32292,1.01693 -0.3694,1.32392 -0.46689,3.08349 -0.087,1.5697 -0.16104,1.80657 -0.48979,1.56618 z m -15.46228,-4.89002 c -0.10302,-0.0821 -0.31842,-1.17872 -0.31842,-1.62113 0,-0.22783 0.17511,-0.37689 0.35958,-0.3061 0.12038,0.0462 0.13415,0.10175 0.23584,0.95158 0.0414,0.34561 0.089,0.67734 0.10593,0.73717 0.0293,0.10353 -0.12688,0.32117 -0.23041,0.32117 -0.0268,0 -0.0955,-0.0372 -0.15252,-0.0827 z m 16.58683,-2.34258 c -0.0353,-0.0919 0.0384,-0.58849 0.19715,-1.32852 0.0243,-0.1131 0.0783,-0.14882 0.2252,-0.14882 0.1063,0 0.2119,0.0301 0.23466,0.0669 0.0558,0.0904 -0.0908,1.03747 -0.20213,1.30557 -0.0663,0.15955 -0.13097,0.21498 -0.25094,0.21498 -0.0898,0 -0.18045,-0.049 -0.20394,-0.11016 z m -17.06538,-0.60898 c -0.043,-0.0696 -0.47736,-3.830372 -0.54025,-4.677876 -0.0394,-0.530775 -0.0314,-0.606515 0.0681,-0.644686 0.23755,-0.09116 0.34306,0.05966 0.41816,0.597747 0.15999,1.146253 0.49565,4.576835 0.45753,4.676165 -0.0428,0.11164 -0.34228,0.14774 -0.40352,0.0487 z"
       style="fill:#000000"
       id="path1-2" /></g></svg>
