<?xml version="1.0" encoding="UTF-8" standalone="no"?>
<!-- Created with Inkscape (http://www.inkscape.org/) -->

<svg
   width="29.494097mm"
   height="31.09371mm"
   viewBox="0 0 29.494097 31.09371"
   version="1.1"
   id="svg1"
   xml:space="preserve"
   inkscape:version="1.3.2 (091e20e, 2023-11-25, custom)"
   sodipodi:docname="a.svg"
   inkscape:export-filename="a.svg"
   inkscape:export-xdpi="96"
   inkscape:export-ydpi="96"
   xmlns:inkscape="http://www.inkscape.org/namespaces/inkscape"
   xmlns:sodipodi="http://sodipodi.sourceforge.net/DTD/sodipodi-0.dtd"
   xmlns="http://www.w3.org/2000/svg"
   xmlns:svg="http://www.w3.org/2000/svg"><sodipodi:namedview
     id="namedview1"
     pagecolor="#ffffff"
     bordercolor="#000000"
     borderopacity="0.25"
     inkscape:showpageshadow="2"
     inkscape:pageopacity="0.0"
     inkscape:pagecheckerboard="0"
     inkscape:deskcolor="#d1d1d1"
     inkscape:document-units="mm"
     inkscape:zoom="1.0847363"
     inkscape:cx="525.93426"
     inkscape:cy="394.10499"
     inkscape:window-width="2560"
     inkscape:window-height="1057"
     inkscape:window-x="-8"
     inkscape:window-y="-8"
     inkscape:window-maximized="1"
     inkscape:current-layer="layer1" /><defs
     id="defs1" /><g
     inkscape:label="圖層 1"
     inkscape:groupmode="layer"
     id="layer1"
     transform="translate(-166.46422,-145.19993)"><path
       d="m 179.83279,176.256 c -3.75088,-0.34532 -6.28942,-1.05876 -7.47558,-2.10095 -0.16311,-0.14332 -0.35741,-0.27975 -0.43177,-0.30319 -0.0982,-0.0309 -0.15611,-0.13765 -0.21157,-0.38975 -0.68811,-3.1278 -0.84967,-3.98401 -1.63804,-8.68153 -0.76696,-4.56987 -1.17644,-6.74453 -1.66586,-8.84702 l -0.11933,-0.51263 -0.23167,-0.003 c -0.5851,-0.007 -1.09187,-0.34898 -1.3836,-0.93278 -0.35073,-0.70187 -0.25731,-1.59074 0.2266,-2.15608 0.78858,-0.92128 2.57575,-0.6629 3.23717,0.46802 0.25869,0.44231 0.32262,0.84911 0.20538,1.30677 -0.0969,0.37815 -0.35183,0.86174 -0.50384,0.95569 -0.0483,0.0298 0.0784,0.20518 0.35046,0.48512 0.79354,0.81659 1.6209,1.78727 3.3631,3.94571 0.95538,1.18363 1.75693,2.12886 1.78121,2.10051 0.0243,-0.0284 0.11196,-0.24503 0.19482,-0.4815 0.0829,-0.23647 0.52223,-1.20386 0.97637,-2.14974 0.45413,-0.94589 1.26551,-2.70207 1.80306,-3.90262 0.53754,-1.20055 1.32339,-2.9494 1.74632,-3.88634 0.42293,-0.93694 0.76896,-1.73318 0.76896,-1.76941 0,-0.0362 -0.0551,-0.0659 -0.12244,-0.0659 -0.19127,0 -0.74479,-0.31638 -1.02179,-0.58404 -0.48611,-0.46971 -0.73775,-1.26254 -0.58291,-1.83654 0.10316,-0.38245 0.38852,-0.77978 0.80605,-1.12234 0.63382,-0.52004 1.12715,-0.67799 1.72027,-0.55078 1.42169,0.30489 2.09804,1.38685 1.63747,2.61947 -0.18292,0.48956 -0.80382,1.13211 -1.26256,1.30657 -0.1728,0.0657 -0.31419,0.14774 -0.31419,0.18228 0,0.0345 0.52098,1.21961 1.15774,2.63351 0.63676,1.4139 1.37805,3.07081 1.64731,3.68201 0.26925,0.61121 0.82335,1.79302 1.23133,2.62626 0.40797,0.83324 0.88222,1.86863 1.05388,2.30086 l 0.31211,0.78588 1.35026,-1.67204 c 1.92855,-2.38816 2.51309,-3.08391 3.39577,-4.04175 l 0.78098,-0.8475 -0.13612,-0.14489 c -0.0749,-0.0797 -0.216,-0.31939 -0.31365,-0.53266 -0.15223,-0.33252 -0.17304,-0.45039 -0.14609,-0.82716 0.0173,-0.24166 0.0831,-0.53929 0.14625,-0.66139 0.20213,-0.39089 0.61577,-0.77629 1.04633,-0.97493 0.34696,-0.16007 0.49813,-0.19055 0.94246,-0.19003 0.46701,5.5e-4 0.57112,0.0243 0.88587,0.20213 0.45259,0.25569 0.70367,0.60419 0.84246,1.16936 0.10166,0.41398 0.10179,0.47833 0.002,0.8839 -0.12679,0.51379 -0.30506,0.82612 -0.59987,1.05098 -0.26506,0.20217 -0.71193,0.36369 -1.00623,0.36369 -0.16218,0 -0.2232,0.0295 -0.2232,0.10778 0,0.0593 -0.13289,0.70668 -0.29531,1.43867 -0.41593,1.87449 -0.67298,3.26981 -1.45766,7.91242 -0.37816,2.23738 -0.78067,4.54423 -0.89446,5.12631 -0.1138,0.58208 -0.23187,1.20716 -0.26237,1.38906 -0.0305,0.18191 -0.16145,0.77722 -0.29099,1.32292 -0.12953,0.54571 -0.23625,1.01452 -0.23715,1.0418 -9.1e-4,0.0273 -0.0251,0.0496 -0.0538,0.0496 -0.0287,0 -0.24446,0.18747 -0.47956,0.4166 -1.24799,1.21634 -3.0322,1.93272 -5.55375,2.22992 -0.81885,0.0965 -3.89068,0.13874 -4.69637,0.0646 z m 3.86954,-0.52935 c 2.9356,-0.27082 5.0538,-1.05333 6.12653,-2.26327 0.32388,-0.36532 0.38571,-0.48047 0.47956,-0.89305 0.16153,-0.71019 0.16214,-0.70864 -0.20647,-0.52331 -0.5216,0.26226 -2.18145,0.87785 -3.029,1.12337 -1.87149,0.54215 -3.29992,0.74019 -5.28885,0.73327 -3.21877,-0.0112 -7.64929,-0.82009 -9.44496,-1.72438 -0.37788,-0.19029 -0.44931,-0.20892 -0.42099,-0.10977 0.0188,0.0657 0.0841,0.35754 0.14523,0.64859 0.0611,0.29104 0.15434,0.59795 0.20718,0.68202 0.12225,0.19452 0.88572,0.68972 1.49929,0.97247 1.36306,0.62815 3.63065,1.1568 5.77046,1.3453 0.93806,0.0826 3.3072,0.0876 4.16202,0.009 z m -0.46302,-2.44691 c 0.43656,-0.0356 1.13203,-0.11501 1.54549,-0.17655 l 0.75173,-0.11189 0.11467,-0.26889 c 0.0631,-0.14789 0.15132,-0.4227 0.19613,-0.61069 0.12192,-0.51156 0.43171,-0.7104 0.62603,-0.40183 0.0568,0.0903 0.0349,0.22716 -0.0978,0.61185 -0.0941,0.27257 -0.14193,0.49558 -0.10634,0.49558 0.0356,0 0.26526,-0.0597 0.51037,-0.13273 0.43749,-0.13028 0.4484,-0.13908 0.59502,-0.47955 0.2766,-0.64231 0.39487,-1.05765 0.52936,-1.85898 0.14006,-0.83451 0.2501,-1.10063 0.45511,-1.10063 0.2836,0 0.29796,0.1452 0.11176,1.12963 -0.0968,0.51187 -0.24623,1.15171 -0.33202,1.42188 -0.0858,0.27016 -0.1276,0.49121 -0.0929,0.49121 0.22984,0 2.34834,-0.97176 2.48963,-1.142 0.0666,-0.0803 0.30813,-1.34992 0.92778,-4.87728 l 0.11039,-0.62839 -0.43333,-0.8599 c -0.5708,-1.13268 -0.75055,-1.70167 -0.75225,-2.38125 -0.001,-0.43378 0.03,-0.59664 0.1723,-0.90348 0.21729,-0.46846 1.18863,-1.4695 1.71313,-1.76551 l 0.36874,-0.20811 0.14994,-0.82727 c 0.0825,-0.455 0.27508,-1.38842 0.42802,-2.07426 l 0.27809,-1.24698 -0.19395,-0.0732 c -0.12209,-0.0461 -0.23589,-0.0508 -0.30713,-0.0126 -0.19439,0.10404 -1.49092,1.49287 -2.30702,2.47126 -0.42942,0.51481 -1.31952,1.62063 -1.978,2.45738 -1.62722,2.06773 -1.48102,1.91565 -1.81978,1.893 -0.127,-0.008 -0.12097,0.004 -0.4824,-0.96696 -0.13548,-0.3638 -0.69949,-1.61396 -1.25335,-2.77813 -0.55386,-1.16417 -1.29065,-2.75663 -1.6373,-3.53881 -0.34665,-0.78217 -0.91346,-2.0621 -1.25959,-2.84427 -0.34612,-0.78218 -0.71167,-1.6001 -0.81233,-1.8176 l -0.18303,-0.39546 -0.25829,0.56082 c -0.14206,0.30846 -0.66141,1.46868 -1.15412,2.57828 -1.3513,3.04319 -1.8089,4.04156 -2.69825,5.88699 -0.77929,1.61705 -1.42206,3.12517 -1.42206,3.33657 0,0.13713 -0.29739,0.32095 -0.44398,0.27443 -0.0658,-0.0209 -0.53611,-0.56417 -1.04504,-1.20726 -2.10821,-2.66402 -2.60026,-3.26806 -3.27822,-4.02432 -0.39137,-0.43656 -0.91574,-0.99462 -1.16527,-1.24014 -0.44815,-0.44093 -0.45631,-0.4454 -0.66711,-0.36584 -0.11738,0.0443 -0.21341,0.11787 -0.21341,0.16348 0,0.0456 0.10512,0.55218 0.23359,1.12572 0.2109,0.94146 0.62631,3.06005 0.62631,3.19419 0,0.0296 0.24618,0.2177 0.54707,0.4179 0.66505,0.44251 1.18844,0.98201 1.40595,1.44921 0.12692,0.27262 0.16236,0.45699 0.1624,0.84482 9e-5,0.89979 -0.48096,2.58602 -0.8989,3.15098 l -0.1535,0.20748 0.42204,2.37221 c 0.23212,1.30471 0.44174,2.44662 0.46582,2.53757 0.0449,0.16951 0.69231,0.6227 1.18173,0.82719 0.27054,0.11304 0.27997,0.0941 0.1445,-0.28984 -0.20305,-0.57551 -0.3126,-1.64196 -0.20387,-1.98456 0.0499,-0.15738 0.30835,-0.19321 0.41544,-0.0576 0.0359,0.0455 0.0845,0.36847 0.10797,0.71777 0.0461,0.68576 0.16691,1.17619 0.40633,1.649 l 0.15176,0.29971 0.66198,0.172 0.66199,0.17201 -0.0935,-0.26505 c -0.17364,-0.49216 -0.0975,-0.84374 0.18277,-0.84374 0.15134,0 0.29236,0.22741 0.34867,0.56224 0.0245,0.14552 0.078,0.36004 0.1189,0.4767 0.0857,0.24429 0.1144,0.25293 1.70354,0.51262 2.02729,0.33128 4.04084,0.43683 5.72163,0.29992 z m -2.58121,-8.91314 c -1.0319,-0.75024 -1.8272,-2.34087 -1.73618,-3.47244 0.0624,-0.77538 0.63802,-1.89534 1.31703,-2.56233 0.60749,-0.59674 0.98557,-0.64427 1.53237,-0.19263 0.52148,0.43072 1.17526,1.53886 1.27466,2.16052 0.0847,0.52945 -0.39328,2.2846 -0.86825,3.18846 -0.2913,0.55434 -0.71967,0.98637 -1.02682,1.03557 -0.18088,0.029 -0.2805,-0.003 -0.49281,-0.15715 z m 0.22678,-1.52187 c 0.11315,-1.14515 0.1848,-1.33528 0.76613,-2.0329 0.79819,-0.95786 0.75269,-0.84757 0.5285,-1.28128 -0.19796,-0.38296 -0.94471,-1.1992 -1.09711,-1.1992 -0.14811,0 -0.81842,0.74594 -1.10735,1.23228 -0.35414,0.5961 -0.53913,1.12463 -0.53913,1.54026 0,0.38098 0.2455,1.11814 0.56361,1.69232 0.26086,0.47084 0.69152,0.99002 0.75805,0.91385 0.0259,-0.0297 0.0832,-0.41907 0.1273,-0.86533 z m -9.53959,0.20138 c 0.0542,-0.73273 -0.0629,-1.03468 -0.6081,-1.56803 -0.22581,-0.22092 -0.50871,-0.45816 -0.62866,-0.5272 l -0.21808,-0.12554 0.0443,0.22158 c 0.0244,0.12186 0.10052,0.28253 0.16921,0.35704 0.0687,0.0745 0.18763,0.34383 0.26431,0.5985 0.0767,0.25466 0.28046,0.84457 0.45286,1.31092 l 0.31346,0.8479 0.0852,-0.28566 c 0.0469,-0.15712 0.10333,-0.53039 0.12545,-0.82951 z m 20.42656,-0.84522 c 0.17261,-0.43656 0.38427,-0.86936 0.47034,-0.96177 0.13008,-0.13966 0.29063,-0.65682 0.29063,-0.93615 0,-0.25113 -1.22657,0.89599 -1.44847,1.35465 -0.18544,0.38329 -0.19623,0.92609 -0.0302,1.51794 l 0.11172,0.39817 0.14605,-0.28954 c 0.0803,-0.15925 0.28727,-0.64673 0.45989,-1.0833 z m -22.51626,-7.41575 c 0.0419,-0.0505 0.11055,-0.0918 0.15253,-0.0918 0.042,0 0.15741,-0.12502 0.25649,-0.27783 0.25832,-0.39839 0.25702,-0.97685 -0.003,-1.3641 -0.23993,-0.35726 -0.56218,-0.58906 -0.99333,-0.71452 -0.94497,-0.27498 -1.66774,0.29253 -1.66774,1.30948 0,0.57138 0.22217,0.91955 0.72807,1.14096 0.3055,0.13371 1.41557,0.13212 1.52704,-0.002 z m -1.57712,-0.45424 c -0.16267,-0.11815 -0.19671,-0.32778 -0.0663,-0.40837 0.0454,-0.0281 0.27943,-0.0534 0.52009,-0.0563 0.41406,-0.005 0.45545,-0.0203 0.77003,-0.28364 0.18284,-0.15308 0.36483,-0.27834 0.40442,-0.27834 0.0396,0 0.12185,0.0761 0.18281,0.16916 0.10492,0.16012 0.10384,0.17865 -0.0202,0.34726 -0.33432,0.45453 -1.43556,0.76828 -1.79086,0.51022 z m 26.84622,0.22812 c 0.37621,-0.1013 0.74992,-0.4773 0.8523,-0.8575 0.19229,-0.71412 -0.26414,-1.57352 -0.89895,-1.69261 -0.95716,-0.17957 -1.93891,0.5613 -1.94377,1.46685 -0.002,0.32333 0.24285,0.82189 0.45565,0.92879 0.0821,0.0413 0.17535,0.10079 0.20713,0.13229 0.0919,0.0911 1.01439,0.10653 1.32764,0.0222 z m -0.82524,-0.62047 c -0.46213,-0.17121 -0.80215,-0.60122 -0.63483,-0.80283 0.1256,-0.15133 0.32396,-0.11338 0.57934,0.11085 0.22182,0.19476 0.25917,0.20488 0.63712,0.17272 0.4858,-0.0413 0.56685,-0.0159 0.56685,0.17789 0,0.35145 -0.62213,0.53637 -1.14848,0.34137 z m -11.98754,-5.23144 c 0.45107,-0.21339 0.80934,-0.5649 1.0058,-0.98681 0.36325,-0.7801 0.0508,-1.50363 -0.80488,-1.8641 -1,-0.42125 -2.31373,0.42949 -2.30706,1.494 0.004,0.56283 0.2832,1.01431 0.78926,1.27411 0.5691,0.29216 0.83852,0.3091 1.31688,0.0828 z m -1.10106,-0.79807 c -0.18613,-0.10098 -0.29247,-0.34895 -0.22503,-0.52469 0.0504,-0.13144 0.33375,-0.12717 0.44485,0.007 0.13531,0.16303 0.55331,0.0755 0.9459,-0.19816 0.29816,-0.20781 0.35116,-0.22432 0.46947,-0.14619 0.21776,0.14379 0.20057,0.3378 -0.0466,0.52635 -0.53543,0.40839 -1.19717,0.54835 -1.58856,0.33598 z m 11.27374,25.09349 c -0.10773,-0.10773 -0.0997,-0.28469 0.0236,-0.52326 0.0818,-0.15817 0.13968,-0.19494 0.28112,-0.17861 0.22079,0.0255 0.27037,0.27651 0.11425,0.57841 -0.10867,0.21014 -0.28141,0.26104 -0.41899,0.12345 z m -21.69289,-0.49941 c -0.15927,-0.37804 -0.22766,-0.67731 -0.44513,-1.94781 -0.20906,-1.22135 -0.21184,-1.41319 -0.022,-1.51479 0.12294,-0.0658 0.16226,-0.0552 0.26459,0.0712 0.0679,0.0839 0.12019,0.25523 0.12019,0.39411 0,0.31716 0.22422,1.56741 0.43777,2.44098 0.092,0.37613 0.15106,0.72588 0.13136,0.77722 -0.0197,0.0513 -0.1075,0.0933 -0.19511,0.0933 -0.12736,0 -0.18583,-0.063 -0.29166,-0.3142 z m 21.9681,-2.1003 c -0.0666,-0.17345 0.0232,-0.79532 0.24336,-1.68655 0.29935,-1.21164 0.43589,-2.00547 0.69405,-4.03491 0.12727,-1.00045 0.26006,-1.88598 0.2951,-1.96784 0.0729,-0.17017 0.37864,-0.20823 0.43764,-0.0545 0.0341,0.0888 -0.14147,1.54517 -0.43907,3.64289 -0.0723,0.50933 -0.23653,1.4023 -0.36505,1.98438 -0.12851,0.58209 -0.26405,1.23664 -0.30119,1.45456 -0.0371,0.21792 -0.10322,0.47093 -0.14683,0.56224 -0.0939,0.19647 -0.35681,0.2592 -0.41801,0.0997 z m -17.63064,-17.21431 c -0.28668,-0.30856 -0.65794,-0.94912 -0.63665,-1.09845 0.014,-0.0978 0.0749,-0.14811 0.19643,-0.16217 0.17614,-0.0204 0.27854,0.10099 0.90972,1.0782 0.22441,0.34744 -0.1728,0.50177 -0.4695,0.18242 z m 13.50644,-0.18105 c -0.0449,-0.0541 -0.0638,-0.16923 -0.0421,-0.25585 0.0455,-0.1815 0.59655,-0.873 0.73925,-0.92776 0.12949,-0.0497 0.27546,0.0129 0.32379,0.13885 0.0418,0.10902 -0.12177,0.41234 -0.2701,0.50077 -0.0481,0.0287 -0.16534,0.18497 -0.26046,0.34727 -0.17972,0.30667 -0.34432,0.37271 -0.49038,0.19672 z m -1.94735,-1.26241 c -0.12781,-0.12781 -0.0932,-0.28645 0.20153,-0.92441 0.23836,-0.51588 0.35349,-0.64799 0.53477,-0.6136 0.20815,0.0395 0.18031,0.35501 -0.0748,0.848 -0.12991,0.25104 -0.23621,0.50158 -0.23621,0.55675 0,0.0552 -0.0576,0.13113 -0.12794,0.16879 -0.16548,0.0886 -0.1743,0.0875 -0.29734,-0.0355 z m -9.6117,-0.28084 c -0.10985,-0.0698 -0.41408,-0.82765 -0.41408,-1.03153 0,-0.10877 0.0477,-0.17735 0.14472,-0.20815 0.17775,-0.0564 0.35232,0.13505 0.44838,0.49181 0.0361,0.1341 0.10997,0.30244 0.16412,0.37408 0.1254,0.16586 0.12528,0.19742 -0.001,0.32396 -0.11438,0.11437 -0.21676,0.12929 -0.34188,0.0498 z"
       style="fill:#000000"
       id="path1-3" /></g></svg>
