<?xml version="1.0" encoding="UTF-8" standalone="no"?>
<!-- Created with Inkscape (http://www.inkscape.org/) -->

<svg
   width="28.521208mm"
   height="33.479233mm"
   viewBox="0 0 28.521208 33.479233"
   version="1.1"
   id="svg1"
   xml:space="preserve"
   inkscape:version="1.3.2 (091e20e, 2023-11-25, custom)"
   sodipodi:docname="a.svg"
   inkscape:export-filename="a.svg"
   inkscape:export-xdpi="96"
   inkscape:export-ydpi="96"
   xmlns:inkscape="http://www.inkscape.org/namespaces/inkscape"
   xmlns:sodipodi="http://sodipodi.sourceforge.net/DTD/sodipodi-0.dtd"
   xmlns="http://www.w3.org/2000/svg"
   xmlns:svg="http://www.w3.org/2000/svg"><sodipodi:namedview
     id="namedview1"
     pagecolor="#ffffff"
     bordercolor="#000000"
     borderopacity="0.25"
     inkscape:showpageshadow="2"
     inkscape:pageopacity="0.0"
     inkscape:pagecheckerboard="0"
     inkscape:deskcolor="#d1d1d1"
     inkscape:document-units="mm"
     inkscape:zoom="1.0847363"
     inkscape:cx="525.93426"
     inkscape:cy="394.10499"
     inkscape:window-width="2560"
     inkscape:window-height="1057"
     inkscape:window-x="-8"
     inkscape:window-y="-8"
     inkscape:window-maximized="1"
     inkscape:current-layer="layer1" /><defs
     id="defs1" /><g
     inkscape:label="圖層 1"
     inkscape:groupmode="layer"
     id="layer1"
     transform="translate(-163.25176,-44.192588)"><path
       d="m 190.0527,77.620683 c -0.14895,-0.108908 -0.0695,-0.27506 0.34551,-0.723048 0.28993,-0.312928 0.81129,-1.304361 0.81202,-1.544128 2e-4,-0.0674 0.0314,-0.234167 0.0692,-0.370593 0.0552,-0.198716 0.1005,-0.248047 0.22785,-0.248047 0.0874,0 0.18561,0.04761 0.21818,0.105797 0.11807,0.21099 -0.1902,1.306816 -0.52666,1.872105 -0.18445,0.309895 -0.63702,0.786371 -0.85667,0.901919 -0.14177,0.07458 -0.1942,0.07567 -0.28949,0.006 z m -3.06263,-0.493792 c -0.96409,-0.343386 -1.51658,-1.268025 -1.45529,-2.43559 0.0194,-0.369278 0.005,-0.551748 -0.0426,-0.551748 -0.11804,0 -0.89685,-0.556362 -1.42093,-1.015071 -0.30677,-0.268514 -0.57242,-0.444968 -0.70825,-0.470449 -0.26326,-0.04939 -0.63059,-0.335998 -1.5459,-1.20618 -0.38199,-0.363161 -0.80242,-0.754219 -0.93428,-0.869018 l -0.23974,-0.208726 -0.55401,0.254541 c -0.3047,0.139998 -0.76236,0.322081 -1.01703,0.404629 -0.25466,0.08255 -0.55895,0.207863 -0.6762,0.278477 -0.13229,0.07967 -0.24916,0.107938 -0.308,0.07449 -0.15709,-0.0893 -1.02387,-1.080608 -1.37738,-1.575255 -0.18199,-0.254662 -0.40917,-0.620731 -0.50483,-0.813486 l -0.17392,-0.350464 0.1311,-0.221341 c 0.18682,-0.315406 0.82425,-1.209871 1.04914,-1.472188 0.23034,-0.268677 0.42262,-0.01254 -1.5795,-2.103984 -5.52317,-5.769592 -6.8601,-7.205563 -7.99912,-8.591664 -0.62404,-0.759406 -1.61981,-2.108983 -1.85462,-2.513587 -0.22837,-0.393493 -0.40873,-1.017323 -0.56613,-1.958062 -0.0761,-0.454754 -0.19571,-1.085305 -0.26584,-1.401226 -0.16993,-0.7655 -0.28468,-1.501395 -0.52411,-3.361284 -0.11006,-0.854936 -0.24801,-1.755314 -0.30655,-2.000838 -0.1202,-0.504063 -0.10416,-0.590802 0.13871,-0.749937 0.13788,-0.09034 0.20079,-0.09766 0.31775,-0.03696 0.0802,0.04163 1.11321,0.400502 2.29557,0.797497 2.22199,0.746066 3.88848,1.357511 5.14223,1.886713 0.69119,0.291752 0.75079,0.33316 1.3178,0.915617 0.55024,0.565228 1.5416,1.81783 2.72658,3.445078 1.05687,1.451313 5.1665,7.777317 6.67426,10.273759 l 0.68633,1.136373 0.28533,-0.122308 c 0.58241,-0.249649 1.56801,-0.530049 2.00629,-0.570783 0.44042,-0.04093 0.45831,-0.03654 0.69375,0.170179 0.31138,0.273394 0.60921,0.684307 1.03103,1.422498 0.20443,0.357766 0.32406,0.638584 0.30185,0.708571 -0.0202,0.06376 -0.004,0.177338 0.0362,0.25239 0.12648,0.236325 -0.21308,0.737272 -1.00081,1.476469 l -0.70414,0.660771 0.21698,0.304324 c 0.26129,0.36647 1.17785,2.185021 1.28752,2.554571 0.0534,0.179911 0.0576,0.315672 0.0133,0.428664 -0.0551,0.140657 -0.006,0.276486 0.32596,0.909051 0.21492,0.409028 0.39077,0.799619 0.39077,0.867981 0,0.09488 0.0659,0.134824 0.27831,0.168797 0.86096,0.137674 1.56135,0.80586 1.90076,1.813371 0.31903,0.947045 0.016,2.000078 -0.78995,2.744899 -0.57226,0.528866 -1.03086,0.725835 -1.75293,0.752883 -0.45854,0.01718 -0.67578,-0.0064 -0.94556,-0.102448 z m 1.79092,-0.629144 c 1.06219,-0.519678 1.57663,-1.872386 1.09923,-2.89038 -0.34456,-0.734732 -0.94557,-1.185587 -1.58229,-1.186963 -0.58543,-0.0013 -1.71219,0.851866 -2.05214,1.553784 -0.22312,0.460697 -0.26013,1.22346 -0.0792,1.63246 0.18466,0.417445 0.5255,0.777981 0.90868,0.961198 0.45731,0.218657 1.1759,0.189126 1.70574,-0.0701 z m -2.8641,-3.090661 c 0.21428,-0.347258 0.91162,-0.934978 1.47192,-1.24054 0.24494,-0.133585 0.44586,-0.265891 0.44648,-0.294012 8.7e-4,-0.03949 -0.54477,-1.033515 -0.64066,-1.167137 -0.0109,-0.0152 -0.2356,0.180207 -0.49931,0.434242 -0.69902,0.673363 -1.31767,1.063556 -2.08332,1.313988 l -0.34136,0.111651 0.4515,0.397304 c 0.38461,0.33845 0.8819,0.690346 0.9976,0.705935 0.0182,0.0025 0.10691,-0.115193 0.19715,-0.261431 z m -1.58621,-1.461694 c 0.23647,-0.07287 0.66054,-0.252221 0.94237,-0.398563 0.85749,-0.445256 1.89715,-1.525981 1.79682,-1.867808 -0.1407,-0.479424 -0.87645,-1.868782 -1.27135,-2.400777 l -0.15859,-0.21364 -0.47272,0.382523 c -0.83723,0.677475 -2.52433,1.837591 -3.47996,2.392953 l -0.49368,0.286905 0.49101,0.45361 c 0.33853,0.312743 0.52265,0.439482 0.5929,0.408116 0.056,-0.02502 0.28049,-0.105117 0.49877,-0.177988 0.32749,-0.109329 0.79909,-0.381336 1.39462,-0.804374 0.13611,-0.09669 0.38596,0.171372 0.32849,0.352428 -0.0709,0.223437 -1.44288,1.065826 -1.73965,1.068146 -0.144,0.0011 -0.0903,0.112529 0.16022,0.332508 0.47295,0.415254 0.60861,0.433135 1.41075,0.185961 z m -5.09324,-1.556331 c 0.41837,-0.16414 1.11787,-0.48104 1.55443,-0.704223 1.61321,-0.824717 4.43374,-2.86053 5.69508,-4.110616 0.69452,-0.688318 0.94351,-1.041541 0.83137,-1.179414 -0.0349,-0.04286 -0.14477,-0.226759 -0.24423,-0.40866 -0.16568,-0.302981 -0.88841,-1.355993 -0.93069,-1.355993 -0.01,0 -0.44421,0.428193 -0.96502,0.95154 -1.25855,1.264685 -2.60003,2.254839 -4.44627,3.281802 -0.42512,0.236472 -1.19578,0.6811 -1.71258,0.988062 -0.90469,0.537351 -1.8722,0.992883 -2.11374,0.995204 -0.16077,0.0015 -0.14481,0.10413 0.0575,0.369329 0.14846,0.194633 0.21228,0.226934 0.44649,0.225949 0.46924,-0.002 1.15364,-0.18184 1.76703,-0.464398 0.61907,-0.285168 0.76034,-0.303345 0.88007,-0.11323 0.10863,0.172501 -0.0113,0.319709 -0.42682,0.524022 -0.32488,0.159732 -1.2845,0.489838 -1.82827,0.62892 l -0.21199,0.05422 0.30236,0.349283 c 0.34722,0.401089 0.23519,0.403737 1.34532,-0.0318 z m -1.5033,-2.477442 c 0.56255,-0.281602 0.57379,-0.31487 0.21865,-0.647063 -0.19706,-0.184327 -0.15659,-0.21364 -0.66576,0.48228 -0.43395,0.593108 -0.41931,0.598502 0.44711,0.164783 z m 2.1064,-1.151269 c 0.55961,-0.311393 1.04379,-0.592207 1.07596,-0.624031 0.0337,-0.03332 -1.03462,-1.427502 -2.51853,-3.286834 -3.51736,-4.407212 -5.29042,-6.692572 -6.96987,-8.98367 l -0.63033,-0.859898 -0.69151,0.03943 c -0.38032,0.02169 -1.2124,0.130309 -1.84905,0.241379 -0.63666,0.11107 -1.32871,0.221971 -1.5379,0.246447 -0.20918,0.02448 -0.38034,0.06667 -0.38034,0.09377 0,0.09709 0.70649,1.072215 1.356,1.871615 0.74692,0.919287 1.31541,1.564959 2.8415,3.227243 0.98601,1.074006 1.56869,1.688171 3.73702,3.938887 0.4564,0.473748 1.64838,1.716232 2.64884,2.761077 1.00046,1.044845 1.8374,1.89995 1.85987,1.900235 0.0225,2.84e-4 0.49872,-0.254259 1.05834,-0.565652 z m 2.38872,-1.426576 c 0.48237,-0.322853 1.14173,-0.796007 1.43718,-1.031315 0.14071,-0.112062 -3.6379,-6.211036 -6.56846,-10.602009 -1.1592,-1.736879 -2.09856,-3.028263 -3.21753,-4.42326 -0.99756,-1.243653 -1.35995,-1.651206 -1.41448,-1.590772 -0.10268,0.113783 -0.63968,1.918976 -0.93899,3.156501 -0.19974,0.825846 -0.37746,1.548158 -0.39493,1.605138 -0.0889,0.289876 10.15048,13.424109 10.39284,13.331107 0.0502,-0.01926 0.36715,-0.219682 0.70437,-0.44539 z m 2.56693,-2.08671 c 0.20146,-0.211969 0.41995,-0.450248 0.48554,-0.529509 l 0.11925,-0.144112 -0.3826,0.09991 c -0.34217,0.08935 -1.20351,0.402788 -1.27957,0.465631 -0.0163,0.01346 0.0571,0.18474 0.16301,0.380614 l 0.19265,0.356134 0.16771,-0.121636 c 0.0922,-0.0669 0.33255,-0.295065 0.53401,-0.507034 z M 168.45565,52.743153 c 0.49113,-0.09461 1.12365,-0.190218 1.4056,-0.212473 0.28195,-0.02226 0.51263,-0.0532 0.51263,-0.06876 0,-0.04126 -1.53812,-2.059194 -2.53481,-3.325543 -1.47124,-1.869295 -3.22381,-3.997678 -3.13063,-3.801963 0.0177,0.03717 0.0807,0.498534 0.14006,1.025262 0.19152,1.69998 0.66726,4.502135 1.06717,6.285673 l 0.0971,0.433185 0.77494,-0.08169 c 0.42621,-0.04493 1.17677,-0.159091 1.66791,-0.253695 z m 2.63468,-2.201948 c 0.19396,-0.790845 0.44999,-1.735557 0.56896,-2.099359 0.36771,-1.124426 0.4317,-0.965488 -0.54119,-1.344083 -1.43911,-0.560022 -5.90817,-2.146062 -5.94455,-2.109681 -0.008,0.0084 0.13356,0.193627 0.31549,0.411603 1.20161,1.439692 3.45841,4.300502 4.68276,5.936047 0.26553,0.354707 0.50148,0.644574 0.52433,0.644148 0.0229,-4.26e-4 0.20024,-0.647829 0.3942,-1.438675 z m 20.13645,22.800113 c -0.14756,-0.349271 -0.141,-0.488298 0.026,-0.552405 0.16867,-0.06472 0.33755,0.07971 0.45607,0.390037 0.12833,0.336049 0.0646,0.497582 -0.19636,0.497582 -0.1105,0 -0.1772,-0.07824 -0.28576,-0.335214 z M 180.9263,57.531101 c -0.34653,-0.482342 -0.40441,-0.628814 -0.29877,-0.756097 0.1505,-0.181346 0.35041,-0.0832 0.60881,0.29889 0.25674,0.379649 0.3047,0.580363 0.17069,0.714377 -0.13849,0.138491 -0.23267,0.08811 -0.48073,-0.25717 z m -1.16257,-2.057094 c -0.38222,-0.523795 -2.14255,-3.174327 -3.36935,-5.073231 -1.26949,-1.964971 -1.31297,-2.064611 -0.92059,-2.109293 0.17642,-0.02009 0.27583,0.117188 1.5698,2.167815 0.628,0.995233 1.58085,2.433285 2.86179,4.319083 0.39416,0.580276 0.47184,0.735252 0.41444,0.826825 -0.1373,0.219062 -0.33445,0.172548 -0.55609,-0.131199 z M 164.4604,53.750059 c -0.12569,-0.195509 -0.76726,-3.248086 -0.76726,-3.650617 0,-0.162588 0.19711,-0.284967 0.32834,-0.20386 0.11654,0.07202 0.3223,0.863862 0.49497,1.904798 0.0931,0.561233 0.2135,1.166255 0.26757,1.344492 0.1278,0.421267 0.12614,0.663587 -0.005,0.713866 -0.16927,0.06496 -0.21772,0.04843 -0.31873,-0.108679 z m -0.94726,-5.225531 c -0.11123,-0.143921 -0.29541,-0.917295 -0.25592,-1.074627 0.10315,-0.410981 0.4774,-0.169929 0.56446,0.363558 0.0327,0.200092 0.0783,0.412055 0.10151,0.471029 0.046,0.11693 -0.11968,0.322723 -0.25975,0.322723 -0.0475,0 -0.11515,-0.03721 -0.1503,-0.08268 z"
       style="fill:#000000"
       id="path1-1" /></g></svg>
