<?xml version="1.0" encoding="UTF-8" standalone="no"?>
<!-- Created with Inkscape (http://www.inkscape.org/) -->

<svg
   width="31.378397mm"
   height="31.549578mm"
   viewBox="0 0 31.378397 31.549578"
   version="1.1"
   id="svg1"
   xml:space="preserve"
   inkscape:version="1.3.2 (091e20e, 2023-11-25, custom)"
   sodipodi:docname="a.svg"
   inkscape:export-filename="a.svg"
   inkscape:export-xdpi="96"
   inkscape:export-ydpi="96"
   xmlns:inkscape="http://www.inkscape.org/namespaces/inkscape"
   xmlns:sodipodi="http://sodipodi.sourceforge.net/DTD/sodipodi-0.dtd"
   xmlns="http://www.w3.org/2000/svg"
   xmlns:svg="http://www.w3.org/2000/svg"><sodipodi:namedview
     id="namedview1"
     pagecolor="#ffffff"
     bordercolor="#000000"
     borderopacity="0.25"
     inkscape:showpageshadow="2"
     inkscape:pageopacity="0.0"
     inkscape:pagecheckerboard="0"
     inkscape:deskcolor="#d1d1d1"
     inkscape:document-units="mm"
     inkscape:zoom="1.0847363"
     inkscape:cx="525.93426"
     inkscape:cy="394.10499"
     inkscape:window-width="2560"
     inkscape:window-height="1057"
     inkscape:window-x="-8"
     inkscape:window-y="-8"
     inkscape:window-maximized="1"
     inkscape:current-layer="layer1" /><defs
     id="defs1" /><g
     inkscape:label="圖層 1"
     inkscape:groupmode="layer"
     id="layer1"
     transform="translate(-161.81441,-8.3600347)"><path
       d="m 177.6118,39.771013 c -0.32222,-0.220946 -0.44894,-0.475446 -0.60629,-1.21757 -0.0757,-0.356988 -0.18227,-0.717221 -0.23684,-0.800515 -0.0546,-0.08329 -0.13534,-0.292969 -0.17946,-0.465943 l -0.0802,-0.314498 -0.26863,0.0194 c -0.38264,0.02763 -2.08554,-0.167871 -3.09698,-0.355544 -1.03882,-0.192752 -1.90219,-0.438066 -2.43513,-0.691904 l -0.39584,-0.188539 -0.7012,0.686685 c -0.83743,0.820112 -1.10093,1.02318 -1.32587,1.021815 -0.43362,-0.0026 -2.30557,-1.315392 -3.20261,-2.245926 -0.55163,-0.572226 -1.47917,-1.895299 -1.61974,-2.310454 -0.10514,-0.310478 -0.0953,-0.729683 0.0303,-1.287048 0.1545,-0.685777 0.20898,-0.802717 0.45519,-0.977071 0.26102,-0.184838 1.1632,-0.87366 1.60697,-1.22692 0.17152,-0.136545 0.32135,-0.253827 0.33294,-0.260626 0.0116,-0.0068 -0.0853,-0.160411 -0.21528,-0.34136 -0.63505,-0.883942 -1.1375,-2.376035 -1.30012,-3.86088 l -0.0844,-0.770402 -0.54598,-0.144231 c -0.98613,-0.26051 -1.65963,-0.779546 -1.84675,-1.423218 -0.14335,-0.493106 -0.0886,-2.2488 0.0945,-3.033158 0.31396,-1.344416 1.11923,-3.25606 1.54216,-3.660962 0.27798,-0.266131 0.62866,-0.237245 1.71604,0.141352 0.48579,0.169141 0.93266,0.323795 0.99305,0.343675 0.0791,0.02605 0.17344,-0.06337 0.33775,-0.320228 1.03584,-1.619272 2.89226,-3.121588 4.61263,-3.732789 0.32406,-0.115133 0.42703,-0.181716 0.4181,-0.270374 -0.006,-0.06469 -0.11751,-0.622784 -0.24665,-1.240202 -0.26129,-1.2491364 -0.25061,-1.5242234 0.0673,-1.7324914 0.17882,-0.117169 2.03906,-0.471138 3.38886,-0.644835 1.49192,-0.191986 3.61951,-0.113097 4.07844,0.151226 0.30568,0.176056 0.3635,0.45794 0.37354,1.8211374 l 0.009,1.204459 0.60255,0.154551 c 1.38267,0.354648 2.10501,0.714246 3.42775,1.706425 0.40013,0.300137 0.74927,0.545704 0.77585,0.545704 0.0774,0 0.87859,-0.857642 1.19248,-1.276541 0.15807,-0.210964 0.34031,-0.411883 0.40497,-0.446486 0.51306,-0.274581 1.29118,0.308898 2.62778,1.970467 0.72213,0.897688 1.20698,1.620188 1.66522,2.481419 0.39155,0.735896 0.5277,1.177279 0.52883,1.714382 10e-4,0.501867 -0.15443,0.67802 -0.9573,1.084575 -0.34618,0.175302 -0.62942,0.324088 -0.62942,0.330636 0,0.0065 0.0427,0.132915 0.0949,0.280814 0.20155,0.571258 0.38815,1.944398 0.39475,2.904918 l 0.007,0.941303 0.34727,0.06742 c 0.19099,0.03708 0.50412,0.09788 0.69584,0.135097 0.54518,0.105845 0.86341,0.498045 1.3033,1.606241 0.19062,0.480215 0.16425,1.069417 -0.0938,2.096405 -0.49231,1.959169 -1.10874,3.217253 -1.77948,3.631791 -0.21808,0.134782 -0.26628,0.139182 -0.79922,0.07296 -0.31193,-0.03876 -0.75311,-0.128778 -0.98041,-0.200036 -0.2273,-0.07126 -0.44764,-0.129945 -0.48964,-0.130414 -0.042,-4.7e-4 -0.16544,0.155416 -0.2743,0.346413 -0.2749,0.482319 -0.9804,1.284591 -1.58676,1.804404 -0.56045,0.480459 -1.69001,1.267899 -2.08353,1.452476 -0.13785,0.06466 -0.24203,0.136285 -0.23151,0.159172 0.32505,0.707193 0.69056,2.389183 0.61116,2.812414 -0.0463,0.246587 -0.17013,0.348164 -0.95584,0.783829 -0.66234,0.367257 -1.53299,0.697055 -2.51355,0.952123 -0.74438,0.193632 -1.04706,0.238066 -1.81901,0.26703 -0.89352,0.03353 -0.93405,0.02926 -1.15398,-0.121549 z m 2.32045,-0.551882 c 1.03149,-0.209663 1.83249,-0.486278 2.82629,-0.976023 l 0.81776,-0.402992 -0.0406,-0.296279 c -0.0574,-0.418498 -0.17191,-0.818943 -0.22608,-0.790299 -1.72658,0.913089 -3.54876,1.479875 -4.99032,1.552234 -0.7073,0.0355 -0.77721,0.05038 -0.77721,0.165355 0,0.230352 0.14555,0.708894 0.23927,0.786674 0.27185,0.22562 0.90682,0.214204 2.1509,-0.03867 z m -1.1092,-1.476401 0.2557,-0.0458 0.19325,-0.66146 c 0.25813,-0.883516 0.22617,-1.074204 -0.32496,-1.939222 -0.26365,-0.413804 -0.33842,-0.74155 -0.19611,-0.859654 0.13597,-0.112845 0.29867,-0.03252 0.42364,0.209155 l 0.10624,0.20545 0.10498,-0.163857 c 0.0577,-0.09012 0.20316,-0.264431 0.32317,-0.387355 0.21132,-0.21646 0.2223,-0.219782 0.34857,-0.105503 0.18007,0.162959 0.16781,0.224808 -0.1342,0.677071 -0.14552,0.21792 -0.26458,0.441599 -0.26458,0.497064 0,0.05547 0.0741,0.260073 0.16472,0.454681 0.0906,0.194609 0.16501,0.44373 0.16536,0.553602 5.3e-4,0.164483 -0.12801,0.716303 -0.30325,1.301787 -0.0309,0.103318 0.005,0.101718 0.44306,-0.01962 0.98895,-0.274053 2.69786,-0.98081 2.98624,-1.23503 0.17881,-0.157631 0.14368,-0.30717 -0.24217,-1.030831 -0.65708,-1.232346 -0.64637,-1.407949 0.11844,-1.942961 1.66517,-1.164844 2.66055,-2.239814 3.35085,-3.618807 0.35767,-0.714509 0.3554,-0.713922 1.31094,-0.338679 0.6675,0.262124 1.11558,0.344276 1.49232,0.273598 0.20907,-0.03922 0.26233,-0.09252 0.4357,-0.435952 0.61483,-1.217974 0.92181,-2.314973 0.97211,-3.473841 l 0.0374,-0.861696 -0.55848,-0.107664 c -0.66814,-0.128803 -1.62474,-0.493618 -1.70947,-0.651933 -0.0334,-0.06239 -0.0717,-0.615684 -0.0852,-1.229549 -0.0266,-1.211173 -0.10268,-1.647026 -0.53922,-3.087203 -0.12878,-0.424866 -0.23415,-0.829711 -0.23415,-0.899656 0,-0.0949 0.19722,-0.231599 0.77722,-0.538698 0.88818,-0.47028 1.47174,-0.830771 1.47174,-0.90916 0,-0.162162 -0.91288,-1.589835 -1.61102,-2.519505 -0.80026,-1.065652 -1.82628,-2.061049 -2.12103,-2.057723 -0.0392,4.43e-4 -0.24022,0.216244 -0.44663,0.479558 -0.49943,0.637109 -1.07003,1.205586 -1.30975,1.304883 -0.18175,0.07528 -0.22445,0.06024 -0.64387,-0.226887 -0.24707,-0.169134 -0.70223,-0.502876 -1.01146,-0.741648 -0.30923,-0.238773 -0.76583,-0.536817 -1.01467,-0.66232 -0.6142,-0.309776 -1.72773,-0.674939 -2.21277,-0.725636 -0.21895,-0.02288 -0.43811,-0.06635 -0.48702,-0.09658 -0.0695,-0.04297 -0.0898,-0.347879 -0.0931,-1.396832 -0.002,-0.7380254 -0.0275,-1.4223264 -0.056,-1.5206704 -0.052,-0.179432 -0.14334,-0.210585 -0.79736,-0.272012 -0.14131,-0.01327 -0.49467,0.555769 -0.81392,1.3107174 -0.22286,0.527024 -0.21807,1.199802 0.0151,2.115155 0.21329,0.837427 0.21091,0.971782 -0.0289,1.628861 -0.10834,0.296859 -0.181,0.565607 -0.16146,0.597218 0.0195,0.03161 0.14539,0.05783 0.27966,0.05826 0.3116,10e-4 2.05596,0.408614 2.50139,0.584512 0.60472,0.238795 0.9745,0.424756 1.48001,0.744277 0.27285,0.172466 0.57795,0.350481 0.67799,0.395589 0.10005,0.04511 0.1819,0.108311 0.1819,0.140452 0,0.03214 0.25003,0.322267 0.55562,0.644723 1.10615,1.167193 1.65824,2.203609 2.0806,3.905822 0.27395,1.104066 0.32415,1.469967 0.33628,2.451111 0.0533,4.313951 -2.40512,7.442643 -6.60462,8.405162 -1.22392,0.280521 -3.42204,0.228685 -4.8186,-0.113631 -1.59927,-0.392002 -2.66502,-1.004101 -3.75671,-2.157602 -1.44728,-1.52923 -2.29115,-3.510868 -2.40244,-5.641545 -0.0733,-1.403485 0.0829,-2.490091 0.5219,-3.630121 0.41573,-1.079629 1.34769,-2.510888 2.1817,-3.350544 0.61667,-0.620842 1.1233,-0.977959 1.99258,-1.404529 0.56626,-0.27787 0.57069,-0.281988 0.60365,-0.560331 0.0383,-0.323562 0.92657,-1.975498 1.29149,-2.401819 0.2474,-0.289038 0.92273,-0.769008 1.76583,-1.255017 l 0.52725,-0.30393 0.0734,-0.366321 c 0.095,-0.4741 0.24237,-0.8368364 0.5635,-1.3866774 0.14296,-0.24479 0.25994,-0.46034 0.25994,-0.479 0,-0.04172 -1.53885,0.002 -2.0836,0.0592 -0.59464,0.06243 -2.16709,0.335141 -2.86184,0.496329 l -0.61287,0.142193 0.0389,0.308032 c 0.042,0.3330204 0.30248,1.5427824 0.45655,2.1206104 0.12912,0.48427 0.0583,0.572837 -0.63852,0.798803 -1.20712,0.39143 -2.09726,0.978771 -3.30285,2.179305 -0.5454,0.543113 -0.96774,1.034606 -1.21713,1.416399 -0.21005,0.321572 -0.41716,0.598208 -0.46026,0.614746 -0.0431,0.01654 -0.44723,-0.107179 -0.89806,-0.274927 -0.45084,-0.167748 -1.01336,-0.349907 -1.25005,-0.404799 l -0.43034,-0.0998 -0.14745,0.184928 c -0.21783,0.273184 -0.71395,1.305015 -0.91142,1.895558 -0.21572,0.645131 -0.48432,1.825377 -0.56593,2.486739 -0.0726,0.58842 0.0211,0.965479 0.27465,1.104939 0.0865,0.0476 0.55611,0.18157 1.04349,0.29771 0.49752,0.118557 0.93517,0.260195 0.99794,0.322965 0.0914,0.09144 0.11963,0.303452 0.15482,1.164386 0.0981,2.399437 0.55551,3.92566 1.54665,5.160448 0.11981,0.149268 0.21784,0.315841 0.21784,0.370162 0,0.05432 -0.44223,0.43117 -0.98275,0.837442 -0.54051,0.406271 -1.03805,0.799793 -1.10565,0.874491 -0.12036,0.132989 -0.11894,0.142954 0.0679,0.478666 0.85548,1.536891 2.34429,3.173517 3.35677,3.690045 l 0.2632,0.134277 0.672,-0.650619 c 1.25027,-1.210492 1.40051,-1.28961 1.88048,-0.990232 1.03382,0.644853 3.48679,1.248058 5.15276,1.267107 0.5479,0.0063 0.83781,0.03644 0.90776,0.0945 0.12585,0.104445 0.15711,0.296867 0.19973,1.229554 0.0397,0.869576 0.12098,1.183733 0.37071,1.433462 0.17439,0.17439 0.22232,0.186855 0.70483,0.183302 0.28475,-0.0021 0.63279,-0.02442 0.77343,-0.04961 z m -4.53702,-4.551214 c -1.67269,-0.214112 -2.86244,-0.709085 -3.77663,-1.571203 -0.25652,-0.241902 -0.31472,-0.336833 -0.29766,-0.485484 0.0363,-0.316403 0.27272,-0.280695 0.67776,0.102376 0.93486,0.884152 1.97488,1.28208 3.84138,1.469761 0.86327,0.0868 1.00132,0.149514 0.93252,0.423611 -0.041,0.16318 -0.0657,0.173291 -0.38891,0.15878 -0.18985,-0.0085 -0.63465,-0.05255 -0.98846,-0.09784 z m 2.51191,-0.03088 c -0.13464,-0.07842 -0.15247,-0.280256 -0.0331,-0.374499 0.0764,-0.06033 0.77255,-0.153529 1.29834,-0.173819 0.26689,-0.0103 0.41406,0.154891 0.29962,0.336316 -0.12677,0.200961 -1.30889,0.361108 -1.56489,0.212002 z M 163.0032,20.584972 c -0.11795,-0.117944 -0.0994,-0.296906 0.11787,-1.139701 0.25364,-0.983752 0.47066,-1.426763 0.69891,-1.426763 0.26066,0 0.26992,0.176358 0.0432,0.823716 -0.11524,0.329133 -0.26858,0.849059 -0.34075,1.155392 -0.14949,0.634586 -0.30085,0.805785 -0.51928,0.587356 z m 4.81633,15.739432 c 4.9e-4,-0.190996 0.0175,-0.409075 0.0378,-0.484619 0.0307,-0.114262 -0.0383,-0.180985 -0.41006,-0.396876 -0.83015,-0.482045 -2.34468,-2.086911 -3.07266,-3.255914 -0.16127,-0.25898 -0.31372,-0.472088 -0.33878,-0.473573 -0.072,-0.0043 -0.13984,0.575851 -0.0977,0.835617 0.0695,0.428088 0.76254,1.484963 1.51041,2.303251 0.31397,0.343532 2.19417,1.819381 2.31785,1.819381 0.0287,0 0.0526,-0.15627 0.0531,-0.347267 z m 8.60358,0.121562 c 0.0152,-0.015 0.0178,-0.253122 0.006,-0.529168 l -0.0218,-0.501901 H 175.916 c -1.3863,0 -4.27963,-0.667784 -5.17404,-1.194174 -0.12031,-0.07081 -0.23193,-0.128745 -0.24804,-0.128745 -0.0161,0 -0.0293,0.232937 -0.0293,0.517637 0,0.606021 0.05,0.674764 0.69453,0.954068 0.62568,0.271155 2.05145,0.585396 3.6711,0.809119 0.61474,0.08491 1.53826,0.127329 1.59302,0.07316 z m 1.5863,-4.974541 c 1.22668,-0.210714 2.53225,-0.767246 3.53209,-1.505639 1.95514,-1.443905 2.94478,-3.550563 2.94564,-6.270475 3.1e-4,-0.975482 -0.0773,-1.620341 -0.30354,-2.520428 -0.40945,-1.629391 -1.00913,-2.709247 -2.10182,-3.784761 l -0.67202,-0.66146 -0.72668,-0.243757 c -1.09646,-0.367799 -1.75796,-0.475714 -2.90949,-0.474647 -1.001,9.27e-4 -1.52747,0.07126 -2.71199,0.362307 -2.65424,0.652174 -4.39931,2.250751 -5.25318,4.812206 -0.33094,0.992769 -0.42707,1.672588 -0.42679,3.018385 3.6e-4,1.761437 0.25411,3.001292 0.87995,4.299488 0.57381,1.190283 1.24741,1.964257 2.01327,2.31327 0.6361,0.289884 1.48696,0.537442 2.26012,0.657588 0.84834,0.131829 2.70135,0.130722 3.47444,-0.0021 z m -7.11374,-9.723853 c -0.12963,-0.129639 -0.0933,-0.362701 0.13654,-0.875113 0.6833,-1.523581 2.15106,-2.757786 3.87598,-3.259232 0.42954,-0.124868 0.52459,-0.13397 0.61505,-0.05889 0.12655,0.105034 0.10879,0.330457 -0.0317,0.40193 -0.0546,0.02776 -0.35222,0.128711 -0.66145,0.224324 -1.46787,0.453856 -2.91092,1.772422 -3.40595,3.112148 -0.12255,0.331662 -0.27425,0.56224 -0.3699,0.56224 -0.0281,0 -0.0995,-0.04833 -0.15857,-0.107402 z m 6.74563,-3.927502 c -0.10914,-0.02777 -0.35107,-0.05401 -0.53761,-0.05832 -0.37462,-0.0086 -0.52432,-0.118841 -0.45559,-0.335381 0.0388,-0.122097 0.0964,-0.13537 0.58424,-0.134491 0.58153,0.001 0.85607,0.09121 0.89512,0.293971 0.0215,0.111462 -0.15172,0.313508 -0.25076,0.292541 -0.0203,-0.0043 -0.12626,-0.03055 -0.2354,-0.05832 z m 11.57698,13.014219 c -0.11775,-0.765295 -0.088,-0.710727 -0.38914,-0.714497 -0.15057,-0.0019 -0.54165,-0.07283 -0.86907,-0.15766 -0.32742,-0.08483 -0.60753,-0.143007 -0.62245,-0.129287 -0.0449,0.04131 0.2082,0.816372 0.28836,0.882903 0.11734,0.09738 1.17042,0.392244 1.41477,0.396141 l 0.22079,0.0035 z m -25.01737,-7.926255 c -0.0294,-0.02889 -0.38081,-0.127937 -0.78099,-0.220099 -0.40019,-0.09216 -0.79754,-0.187581 -0.88302,-0.212042 -0.1535,-0.04393 -0.15414,-0.04203 -0.052,0.155519 0.19871,0.384249 0.66957,0.695353 1.33188,0.879975 l 0.39687,0.110632 0.0203,-0.330727 c 0.0112,-0.181899 -0.004,-0.354366 -0.0331,-0.383258 z m 25.28052,-3.889236 c 0.43846,-0.234361 0.46414,-0.260975 0.48416,-0.501827 0.0116,-0.139888 0.004,-0.322604 -0.0169,-0.406036 -0.037,-0.147545 -0.0593,-0.139751 -0.8149,0.284924 -0.42724,0.24014 -0.78727,0.445003 -0.80004,0.455251 -0.0128,0.01025 0.0542,0.102134 0.14883,0.20419 0.0946,0.102056 0.17205,0.211412 0.17205,0.243013 0,0.09595 0.33841,-0.01845 0.82683,-0.279515 z m -15.53524,-4.10545 c 0.4916,-0.142812 1.6683,-0.331121 2.08221,-0.333218 0.23137,-0.0012 0.24578,-0.01595 0.44052,-0.451471 0.28943,-0.64729 0.31652,-0.93573 0.15268,-1.625579 -0.0758,-0.319245 -0.13786,-0.637627 -0.13786,-0.707515 0,-0.06989 -0.03,-0.127069 -0.0666,-0.127069 -0.0366,0 -0.34978,0.169578 -0.69596,0.376842 -1.07318,0.642552 -1.55746,1.161023 -2.10997,2.258988 -0.3612,0.717773 -0.3944,0.820072 -0.25297,0.779442 0.0637,-0.0183 0.32826,-0.09499 0.58791,-0.17042 z m 16.72525,17.499637 c -0.16586,-0.121276 -0.0932,-0.34265 0.22658,-0.690034 0.22805,-0.247758 0.28067,-0.275824 0.39872,-0.212647 0.18746,0.100324 0.17039,0.265374 -0.0604,0.583932 -0.25038,0.345637 -0.40718,0.434105 -0.56494,0.318749 z m 1.23754,-2.104556 c -0.11763,-0.117627 -0.0963,-0.32197 0.0604,-0.579013 0.17536,-0.28765 0.2687,-0.598175 0.52784,-1.75594 0.20942,-0.935585 0.27041,-1.091408 0.42719,-1.091408 0.13932,0 0.30187,0.202613 0.26238,0.327037 -0.02,0.06306 -0.12494,0.528736 -0.23317,1.034829 -0.24201,1.131688 -0.43974,1.708597 -0.67013,1.955237 -0.19481,0.208539 -0.25705,0.226698 -0.37449,0.109258 z m -1.58316,-14.287306 c -0.0729,-0.156558 -0.15399,-0.353546 -0.18012,-0.437752 -0.15099,-0.486494 -0.8499,-1.46795 -1.76358,-2.476529 -0.49746,-0.549121 -0.5526,-0.728678 -0.23497,-0.765189 0.14929,-0.01716 0.24696,0.04151 0.49553,0.297657 0.62322,0.642249 1.20829,1.392799 1.5892,2.038691 0.63816,1.082083 0.75842,1.566064 0.39951,1.607706 -0.14682,0.01703 -0.19301,-0.02296 -0.30557,-0.264584 z"
       style="fill:#000000"
       id="path1-7" /></g></svg>
